<?xml version="1.0" encoding="utf-8"?>
<!-- Generator: Adobe Illustrator 23.0.6, SVG Export Plug-In . SVG Version: 6.00 Build 0)  -->
<svg version="1.1" id="Camada_1" xmlns="http://www.w3.org/2000/svg" xmlns:xlink="http://www.w3.org/1999/xlink" x="0px" y="0px"
	 viewBox="0 0 282 257.5" style="enable-background:new 0 0 282 257.5;" xml:space="preserve">
<style type="text/css">
	.st0{fill:#4EC780;}
</style>
<g>
	<g>
		<path class="st0" d="M127.9,200.7l-80.5-80.5c-2.8-2.8-2.8-7.3,0-10c2.8-2.8,7.3-2.8,10,0l70.4,70.4l142-142c2.8-2.8,7.3-2.8,10,0
			c2.8,2.8,2.8,7.3,0,10L127.9,200.7z"/>
	</g>
	<g>
		<path class="st0" d="M129.2,257.5c-1.7,0-3.4,0-5.3-0.2c-31-1.1-60.5-13.5-83-34.8C14.9,198.2,0,163.9,0,128.2
			C0,66.8,43.6,13.5,103.7,1.6c3.8-0.8,7.6,1.7,8.3,5.6c0.8,3.8-1.7,7.6-5.6,8.3C53,26.1,14.2,73.5,14.2,128.2
			c0,31.7,13.3,62.3,36.4,83.9c20,19,46.2,30,73.8,31l0.9,0.1c1.2,0.2,2.4,0.2,3.9,0.2c63.4,0,115.1-51.6,115.1-115.1
			c0-1.5,0-2.8-0.2-4c-0.5-3.9,2.3-7.4,6.2-7.9c3.9-0.5,7.4,2.3,7.9,6.2c0.3,2.1,0.3,4,0.3,5.8C258.4,199.5,200.4,257.5,129.2,257.5
			z"/>
	</g>
	<g>
		<path class="st0" d="M218.2,51.9c-1.9,0-3.8-0.8-5.2-2.2c-18.3-19.6-43-32.2-69.4-35.5c-3.9-0.5-6.6-4-6.2-7.9
			c0.5-3.9,4-6.6,7.9-6.2c29.7,3.8,57.4,17.9,78,39.9c2.7,2.9,2.5,7.4-0.3,10C221.7,51.2,220,51.9,218.2,51.9z"/>
	</g>
	<g>
		<path class="st0" d="M127.9,200.7l-80.5-80.5c-2.8-2.8-2.8-7.3,0-10c2.8-2.8,7.3-2.8,10,0l70.4,70.4l142-142c2.8-2.8,7.3-2.8,10,0
			c2.8,2.8,2.8,7.3,0,10L127.9,200.7z"/>
	</g>
</g>
</svg>
