<?xml version="1.0" encoding="utf-8"?>
<!-- Generator: Adobe Illustrator 23.0.6, SVG Export Plug-In . SVG Version: 6.00 Build 0)  -->
<svg version="1.1" id="Camada_1" xmlns="http://www.w3.org/2000/svg" xmlns:xlink="http://www.w3.org/1999/xlink" x="0px" y="0px"
	 viewBox="0 0 268.4 268.5" style="enable-background:new 0 0 268.4 268.5;" xml:space="preserve">
<style type="text/css">
	.st0{fill:#FF3632;}
</style>
<g>
	<g>
		<path class="st0" d="M129.2,268.5c-20.3,0-40.3-4.8-58-13.8c-25.3-12.6-46-33.8-58.4-59.5C4.3,177.8,0,158.9,0,139.2
			C0,77.9,43.6,24.6,103.6,12.6c3.9-0.8,7.6,1.7,8.4,5.6c0.8,3.8-1.7,7.6-5.6,8.4C53,37.2,14.2,84.6,14.2,139.2
			c0,17.6,3.8,34.3,11.3,49.9c11,22.9,29.5,41.7,52.1,53c15.7,8,33.5,12.2,51.6,12.2c63.4,0,115.1-51.6,115.1-115.1
			c0-17.8-4.2-35.7-12.2-51.6c-1.8-3.5-0.4-7.8,3.2-9.5c3.5-1.8,7.8-0.4,9.5,3.2c9,17.9,13.7,37.9,13.7,57.9
			C258.4,210.5,200.4,268.5,129.2,268.5z"/>
	</g>
	<g>
		<path class="st0" d="M182.1,36.3c-1,0-2.1-0.2-3.1-0.7c-11.4-5.5-23.4-9-35.6-10.4c-3.9-0.5-6.7-4-6.2-7.9c0.5-3.9,4-6.7,7.9-6.2
			c13.8,1.6,27.3,5.6,40.2,11.8c3.5,1.7,5,5.9,3.3,9.5C187.3,34.8,184.8,36.3,182.1,36.3z"/>
	</g>
	<g>
		<g>
			<path class="st0" d="M194.9,212c-1.8,0-3.6-0.7-5-2.1L58.5,78.6c-2.8-2.8-2.8-7.3,0-10c2.8-2.8,7.3-2.8,10,0l131.3,131.3
				c2.8,2.8,2.8,7.3,0,10C198.5,211.3,196.7,212,194.9,212z"/>
		</g>
		<g>
			<path class="st0" d="M63.6,212c-1.8,0-3.6-0.7-5-2.1c-2.8-2.8-2.8-7.3,0-10L256.3,2.1c2.8-2.8,7.3-2.8,10,0c2.8,2.8,2.8,7.3,0,10
				L68.6,209.9C67.2,211.3,65.4,212,63.6,212z"/>
		</g>
	</g>
</g>
</svg>
