<?xml version="1.0" encoding="utf-8"?>
<!-- Generator: Adobe Illustrator 21.1.0, SVG Export Plug-In . SVG Version: 6.00 Build 0)  -->
<svg version="1.1" id="Camada_1" xmlns="http://www.w3.org/2000/svg" xmlns:xlink="http://www.w3.org/1999/xlink" x="0px" y="0px"
	 viewBox="0 0 22 23.8" style="enable-background:new 0 0 22 23.8;" xml:space="preserve">
<style type="text/css">
	.st0{fill:#424142;}
	.st1{fill:#FFFFFF;}
</style>
<path class="st0" d="M11.7,19.4L9.9,15l6-1L2,2v18l4.7-3.6l2,4.5l0,0c0.4,0.8,1.4,1.2,2.2,0.8C11.7,21.3,12.1,20.4,11.7,19.4
	L11.7,19.4L11.7,19.4C11.7,19.5,11.7,19.5,11.7,19.4L11.7,19.4z"/>
<path class="st1" d="M10.2,23.8c-1.3,0-2.6-0.8-3.2-1.9c0-0.1-0.1-0.1-0.1-0.2L6,19.6l-2.7,2.1C2.9,21.9,2.4,22,2,22
	c-0.3,0-0.6-0.1-0.9-0.2C0.4,21.5,0,20.8,0,20V2c0-0.8,0.5-1.5,1.2-1.8C1.4,0.1,1.7,0,2,0c0.5,0,0.9,0.2,1.3,0.5l13.9,12
	c0.6,0.5,0.8,1.3,0.6,2.1S17,15.8,16.2,16l-3.5,0.6c0,0,0.9,2.2,0.9,2.3l0,0c0.7,1.9-0.2,3.9-2,4.7C11.2,23.7,10.7,23.8,10.2,23.8
	L10.2,23.8z"/>
<path d="M11.7,19.4L9.9,15l6-1L2,2v18l4.7-3.6l2,4.5l0,0c0.4,0.8,1.4,1.2,2.2,0.8C11.7,21.3,12.1,20.4,11.7,19.4L11.7,19.4
	L11.7,19.4C11.7,19.5,11.7,19.5,11.7,19.4L11.7,19.4z"/>
</svg>
