<?xml version="1.0" encoding="utf-8"?>
<!-- Generator: Adobe Illustrator 23.0.0, SVG Export Plug-In . SVG Version: 6.00 Build 0)  -->
<svg version="1.1" id="Camada_1" xmlns="http://www.w3.org/2000/svg" xmlns:xlink="http://www.w3.org/1999/xlink" x="0px" y="0px"
	 viewBox="0 0 50 50" style="enable-background:new 0 0 50 50;" xml:space="preserve">
<style type="text/css">
	.st0{fill:#FFFF00;}
</style>
<g>
	<g>
		<g>
			<path class="st0" d="M41.5,48.4H8.9c-3.9,0-7.1-3.2-7.1-7.1V8.7c0-3.9,3.2-7.1,7.1-7.1h32.6c3.9,0,7.1,3.2,7.1,7.1v32.6
				C48.5,45.2,45.4,48.4,41.5,48.4z M8.9,6C7.4,6,6.2,7.2,6.2,8.7v32.6c0,1.5,1.2,2.7,2.7,2.7h32.6c1.5,0,2.7-1.2,2.7-2.7V8.7
				C44.2,7.2,43,6,41.5,6H8.9z"/>
		</g>
	</g>
</g>
</svg>
